<svg width="23" height="20" viewBox="0 0 23 20" fill="none" xmlns="http://www.w3.org/2000/svg">
<path d="M21.5475 0.247559H1.61637C0.933874 0.247559 0.379761 0.722405 0.379761 1.30939V18.4235C0.379761 19.0105 0.933874 19.486 1.61637 19.486H12.3467V12.0357H9.42708V9.13185H12.3467V6.99045C12.3467 4.50598 14.1134 3.15239 16.6951 3.15239C17.9328 3.15239 18.9942 3.2319 19.3037 3.26643V5.86336L17.513 5.86399C16.1093 5.86399 15.8385 6.43704 15.8385 7.27745V9.1309H19.1875L18.7496 12.0345H15.8381V19.485H21.5471C22.2303 19.485 22.7848 19.0089 22.7848 18.4235V1.30876C22.7845 0.722406 22.2307 0.247559 21.5475 0.247559Z" fill="#5B5A7E"/>
</svg>
